<svg width="254" height="294" viewBox="0 0 254 294" fill="none" xmlns="http://www.w3.org/2000/svg">
<g opacity="0.6" clip-path="url(#clip0_312_763)">
<g style="mix-blend-mode:screen">
<path d="M42.2333 126.622H169.261L222.8 74.8168H317.221L391.283 3.1995L390.71 2.62524L316.894 74.0375H222.473L168.933 125.802H42.2333V126.622Z" fill="url(#paint0_radial_312_763)"/>
<path d="M42.3971 123.177C40.6766 123.177 39.2429 124.531 39.2429 126.212C39.2429 127.894 40.6357 129.248 42.3971 129.248C44.1585 129.248 45.5513 127.894 45.5513 126.212C45.5513 124.531 44.1585 123.177 42.3971 123.177Z" fill="url(#paint1_radial_312_763)"/>
<path d="M3.35898 187.247L46.6164 145.409H195.273L239.759 102.422H299.525L323.448 125.556H504.465V124.736H323.775L299.853 101.602H239.432L194.945 144.588H46.2478L2.74454 186.673L3.35898 187.247Z" fill="url(#paint2_radial_312_763)"/>
<path d="M0.942331 184.704C-0.286574 185.893 -0.286574 187.821 0.942331 189.011C2.17124 190.2 4.17847 190.2 5.36641 189.011C6.59531 187.821 6.59531 185.893 5.36641 184.704C4.1375 183.514 2.13027 183.514 0.942331 184.704Z" fill="url(#paint3_radial_312_763)"/>
<path d="M8.7662 206.895L50.9995 166.082H192.569L239.923 120.265H283.222L317.918 153.817H454.203V153.038H318.286L283.549 119.444H239.595L192.242 165.261H50.6718L8.19272 206.32L8.7662 206.895Z" fill="url(#paint4_radial_312_763)"/>
<path d="M10.8142 208.658C9.58526 209.848 7.57803 209.848 6.39008 208.658C5.16118 207.469 5.16118 205.541 6.39008 204.351C7.61899 203.162 9.62622 203.162 10.8142 204.351C12.0431 205.541 12.0431 207.469 10.8142 208.658Z" fill="url(#paint5_radial_312_763)"/>
<path d="M8.76611 231.218L54.0717 187.411H181.714L224.48 146.024H295.429L332.419 181.833H485.909L531.255 137.943L530.682 137.369L485.54 181.012H332.787L295.797 145.245H224.152L181.386 186.591H53.703L8.19263 230.644L8.76611 231.218Z" fill="url(#paint6_radial_312_763)"/>
<path d="M6.34912 228.675C5.12021 229.865 5.12021 231.792 6.34912 232.982C7.57802 234.172 9.5852 234.172 10.7731 232.982C12.0021 231.792 12.0021 229.865 10.7731 228.675C9.54424 227.486 7.53706 227.486 6.34912 228.675Z" fill="url(#paint7_radial_312_763)"/>
<path d="M27.7733 239.75L64.5995 204.146H179.01L223.661 160.954H292.725L348.968 215.344L349.542 214.77L293.053 160.175H223.292L178.642 203.326H64.2308L27.1998 239.176L27.7733 239.75Z" fill="url(#paint8_radial_312_763)"/>
<path d="M25.3975 237.207C24.1686 238.396 24.1686 240.324 25.3975 241.514C26.6264 242.703 28.6335 242.703 29.8215 241.514C31.0504 240.324 31.0504 238.396 29.8215 237.207C28.5926 236.017 26.5854 236.017 25.3975 237.207Z" fill="url(#paint9_radial_312_763)"/>
<path d="M152.179 346.93H195.027L276.626 268.011H493.323V267.191H276.299L194.658 346.15H152.507L121.948 316.577H39.1201L3.35895 281.998L2.74451 282.573L38.7924 317.397H121.621L152.179 346.93Z" fill="url(#paint10_radial_312_763)"/>
<path d="M5.36641 280.235C4.1375 279.045 2.13027 279.045 0.942331 280.235C-0.286574 281.424 -0.286574 283.352 0.942331 284.542C2.17124 285.731 4.17847 285.731 5.36641 284.542C6.59531 283.352 6.59531 281.424 5.36641 280.235Z" fill="url(#paint11_radial_312_763)"/>
<path d="M192.897 252.383H222.022V251.604H193.266L166.762 225.968H67.7535V226.788H166.435L192.897 252.383Z" fill="url(#paint12_radial_312_763)"/>
<path d="M67.9176 223.343C66.1971 223.343 64.7634 224.696 64.7634 226.378C64.7634 228.06 66.1561 229.413 67.9176 229.413C69.679 229.413 71.0718 228.06 71.0718 226.378C71.0718 224.696 69.679 223.343 67.9176 223.343Z" fill="url(#paint13_radial_312_763)"/>
<path d="M221.858 248.938C223.578 248.938 225.012 250.292 225.012 251.973C225.012 253.655 223.619 255.009 221.858 255.009C220.097 255.009 218.704 253.655 218.704 251.973C218.704 250.292 220.097 248.938 221.858 248.938Z" fill="url(#paint14_radial_312_763)"/>
<path d="M194.822 227.28L235.335 188.067H293.995V187.247H235.007L194.208 226.706L194.822 227.28Z" fill="url(#paint15_radial_312_763)"/>
<path d="M192.405 224.737C191.176 225.927 191.176 227.855 192.405 229.044C193.634 230.234 195.641 230.234 196.829 229.044C198.058 227.855 198.058 225.927 196.829 224.737C195.6 223.548 193.593 223.548 192.405 224.737Z" fill="url(#paint16_radial_312_763)"/>
<path d="M221.981 231.218L250.287 203.818H302.146V202.998H249.959L221.366 230.644L221.981 231.218Z" fill="url(#paint17_radial_312_763)"/>
<path d="M219.564 228.675C218.336 229.865 218.336 231.792 219.564 232.982C220.793 234.172 222.801 234.172 223.988 232.982C225.217 231.792 225.217 229.865 223.988 228.675C222.76 227.486 220.752 227.486 219.564 228.675Z" fill="url(#paint18_radial_312_763)"/>
<path d="M176.348 321.047H201.786L276.135 249.143H506.882V248.364H275.807L201.459 320.227H176.676L147.469 292.007H67.385L43.7901 269.201L43.2166 269.775L67.0164 292.827H147.141L176.348 321.047Z" fill="url(#paint19_radial_312_763)"/>
<path d="M45.8381 267.478C44.6092 266.289 42.602 266.289 41.414 267.478C40.1851 268.668 40.1851 270.595 41.414 271.785C42.6429 272.974 44.6501 272.974 45.8381 271.785C47.067 270.595 47.067 268.668 45.8381 267.478Z" fill="url(#paint20_radial_312_763)"/>
<path d="M178.724 299.062H205.883L277.692 229.618H519.13V228.798H277.323L205.514 298.241H179.051L158.365 278.225H73.4886L51.9418 257.388L51.3683 257.962L73.1199 279.045H157.996L178.724 299.062Z" fill="url(#paint21_radial_312_763)"/>
<path d="M53.9899 255.624C52.761 254.434 50.7539 254.434 49.5659 255.624C48.337 256.813 48.337 258.741 49.5659 259.931C50.7948 261.12 52.802 261.12 53.9899 259.931C55.2188 258.741 55.2188 256.813 53.9899 255.624Z" fill="url(#paint22_radial_312_763)"/>
<path d="M180.198 270.964L180.812 270.39L152.916 243.441H66.1148V244.221H152.589L180.198 270.964Z" fill="url(#paint23_radial_312_763)"/>
<path d="M66.2789 240.775C64.5584 240.775 63.1247 242.129 63.1247 243.811C63.1247 245.492 64.5175 246.846 66.2789 246.846C68.0403 246.846 69.4331 245.492 69.4331 243.811C69.4331 242.129 68.0403 240.775 66.2789 240.775Z" fill="url(#paint24_radial_312_763)"/>
<path d="M182.615 268.421C183.844 269.611 183.844 271.539 182.615 272.728C181.386 273.918 179.379 273.918 178.191 272.728C176.962 271.539 176.962 269.611 178.191 268.421C179.42 267.232 181.427 267.232 182.615 268.421Z" fill="url(#paint25_radial_312_763)"/>
<path d="M252.13 91.9213H337.58L402.835 28.8357L402.221 28.2615L337.252 91.101H252.13V91.9213Z" fill="url(#paint26_radial_312_763)"/>
<path d="M252.294 88.4758C250.574 88.4758 249.14 89.8294 249.14 91.5112C249.14 93.1929 250.533 94.5465 252.294 94.5465C254.055 94.5465 255.448 93.1929 255.448 91.5112C255.448 89.8294 254.055 88.4758 252.294 88.4758Z" fill="url(#paint27_radial_312_763)"/>
</g>
</g>
<defs>
<radialGradient id="paint0_radial_312_763" cx="0" cy="0" r="1" gradientUnits="userSpaceOnUse" gradientTransform="translate(344.077 268.573) rotate(180) scale(306.673 307.081)">
<stop offset="0.4" stop-color="#CFA935"/>
<stop offset="0.6" stop-color="#CFA935"/>
<stop offset="0.7" stop-color="#9C8028"/>
<stop offset="0.8" stop-color="#392F0E"/>
<stop offset="0.9" stop-color="#1A1506"/>
<stop offset="1"/>
</radialGradient>
<radialGradient id="paint1_radial_312_763" cx="0" cy="0" r="1" gradientUnits="userSpaceOnUse" gradientTransform="translate(344.077 268.573) rotate(180) scale(306.674 307.081)">
<stop offset="0.4" stop-color="#CFA935"/>
<stop offset="0.6" stop-color="#CFA935"/>
<stop offset="0.7" stop-color="#9C8028"/>
<stop offset="0.8" stop-color="#392F0E"/>
<stop offset="0.9" stop-color="#1A1506"/>
<stop offset="1"/>
</radialGradient>
<radialGradient id="paint2_radial_312_763" cx="0" cy="0" r="1" gradientUnits="userSpaceOnUse" gradientTransform="translate(344.077 268.573) rotate(180) scale(306.673 307.081)">
<stop offset="0.4" stop-color="#CFA935"/>
<stop offset="0.6" stop-color="#CFA935"/>
<stop offset="0.7" stop-color="#9C8028"/>
<stop offset="0.8" stop-color="#392F0E"/>
<stop offset="0.9" stop-color="#1A1506"/>
<stop offset="1"/>
</radialGradient>
<radialGradient id="paint3_radial_312_763" cx="0" cy="0" r="1" gradientUnits="userSpaceOnUse" gradientTransform="translate(344.078 268.573) rotate(180) scale(306.674 307.081)">
<stop offset="0.4" stop-color="#CFA935"/>
<stop offset="0.6" stop-color="#CFA935"/>
<stop offset="0.7" stop-color="#9C8028"/>
<stop offset="0.8" stop-color="#392F0E"/>
<stop offset="0.9" stop-color="#1A1506"/>
<stop offset="1"/>
</radialGradient>
<radialGradient id="paint4_radial_312_763" cx="0" cy="0" r="1" gradientUnits="userSpaceOnUse" gradientTransform="translate(344.077 268.573) rotate(180) scale(306.673 307.081)">
<stop offset="0.4" stop-color="#CFA935"/>
<stop offset="0.6" stop-color="#CFA935"/>
<stop offset="0.7" stop-color="#9C8028"/>
<stop offset="0.8" stop-color="#392F0E"/>
<stop offset="0.9" stop-color="#1A1506"/>
<stop offset="1"/>
</radialGradient>
<radialGradient id="paint5_radial_312_763" cx="0" cy="0" r="1" gradientUnits="userSpaceOnUse" gradientTransform="translate(344.078 268.573) rotate(180) scale(306.674 307.081)">
<stop offset="0.4" stop-color="#CFA935"/>
<stop offset="0.6" stop-color="#CFA935"/>
<stop offset="0.7" stop-color="#9C8028"/>
<stop offset="0.8" stop-color="#392F0E"/>
<stop offset="0.9" stop-color="#1A1506"/>
<stop offset="1"/>
</radialGradient>
<radialGradient id="paint6_radial_312_763" cx="0" cy="0" r="1" gradientUnits="userSpaceOnUse" gradientTransform="translate(344.077 268.573) rotate(180) scale(306.673 307.081)">
<stop offset="0.4" stop-color="#CFA935"/>
<stop offset="0.6" stop-color="#CFA935"/>
<stop offset="0.7" stop-color="#9C8028"/>
<stop offset="0.8" stop-color="#392F0E"/>
<stop offset="0.9" stop-color="#1A1506"/>
<stop offset="1"/>
</radialGradient>
<radialGradient id="paint7_radial_312_763" cx="0" cy="0" r="1" gradientUnits="userSpaceOnUse" gradientTransform="translate(344.075 268.573) rotate(180) scale(306.672 307.081)">
<stop offset="0.4" stop-color="#CFA935"/>
<stop offset="0.6" stop-color="#CFA935"/>
<stop offset="0.7" stop-color="#9C8028"/>
<stop offset="0.8" stop-color="#392F0E"/>
<stop offset="0.9" stop-color="#1A1506"/>
<stop offset="1"/>
</radialGradient>
<radialGradient id="paint8_radial_312_763" cx="0" cy="0" r="1" gradientUnits="userSpaceOnUse" gradientTransform="translate(344.077 268.573) rotate(180) scale(306.673 307.081)">
<stop offset="0.4" stop-color="#CFA935"/>
<stop offset="0.6" stop-color="#CFA935"/>
<stop offset="0.7" stop-color="#9C8028"/>
<stop offset="0.8" stop-color="#392F0E"/>
<stop offset="0.9" stop-color="#1A1506"/>
<stop offset="1"/>
</radialGradient>
<radialGradient id="paint9_radial_312_763" cx="0" cy="0" r="1" gradientUnits="userSpaceOnUse" gradientTransform="translate(344.075 268.573) rotate(180) scale(306.672 307.081)">
<stop offset="0.4" stop-color="#CFA935"/>
<stop offset="0.6" stop-color="#CFA935"/>
<stop offset="0.7" stop-color="#9C8028"/>
<stop offset="0.8" stop-color="#392F0E"/>
<stop offset="0.9" stop-color="#1A1506"/>
<stop offset="1"/>
</radialGradient>
<radialGradient id="paint10_radial_312_763" cx="0" cy="0" r="1" gradientUnits="userSpaceOnUse" gradientTransform="translate(344.077 268.573) rotate(180) scale(306.673 307.081)">
<stop offset="0.4" stop-color="#CFA935"/>
<stop offset="0.6" stop-color="#CFA935"/>
<stop offset="0.7" stop-color="#9C8028"/>
<stop offset="0.8" stop-color="#392F0E"/>
<stop offset="0.9" stop-color="#1A1506"/>
<stop offset="1"/>
</radialGradient>
<radialGradient id="paint11_radial_312_763" cx="0" cy="0" r="1" gradientUnits="userSpaceOnUse" gradientTransform="translate(344.078 268.573) rotate(180) scale(306.674 307.081)">
<stop offset="0.4" stop-color="#CFA935"/>
<stop offset="0.6" stop-color="#CFA935"/>
<stop offset="0.7" stop-color="#9C8028"/>
<stop offset="0.8" stop-color="#392F0E"/>
<stop offset="0.9" stop-color="#1A1506"/>
<stop offset="1"/>
</radialGradient>
<radialGradient id="paint12_radial_312_763" cx="0" cy="0" r="1" gradientUnits="userSpaceOnUse" gradientTransform="translate(344.077 268.573) rotate(180) scale(306.673 307.081)">
<stop offset="0.4" stop-color="#CFA935"/>
<stop offset="0.6" stop-color="#CFA935"/>
<stop offset="0.7" stop-color="#9C8028"/>
<stop offset="0.8" stop-color="#392F0E"/>
<stop offset="0.9" stop-color="#1A1506"/>
<stop offset="1"/>
</radialGradient>
<radialGradient id="paint13_radial_312_763" cx="0" cy="0" r="1" gradientUnits="userSpaceOnUse" gradientTransform="translate(344.077 268.573) rotate(180) scale(306.674 307.081)">
<stop offset="0.4" stop-color="#CFA935"/>
<stop offset="0.6" stop-color="#CFA935"/>
<stop offset="0.7" stop-color="#9C8028"/>
<stop offset="0.8" stop-color="#392F0E"/>
<stop offset="0.9" stop-color="#1A1506"/>
<stop offset="1"/>
</radialGradient>
<radialGradient id="paint14_radial_312_763" cx="0" cy="0" r="1" gradientUnits="userSpaceOnUse" gradientTransform="translate(344.077 268.573) rotate(180) scale(306.674 307.081)">
<stop offset="0.4" stop-color="#CFA935"/>
<stop offset="0.6" stop-color="#CFA935"/>
<stop offset="0.7" stop-color="#9C8028"/>
<stop offset="0.8" stop-color="#392F0E"/>
<stop offset="0.9" stop-color="#1A1506"/>
<stop offset="1"/>
</radialGradient>
<radialGradient id="paint15_radial_312_763" cx="0" cy="0" r="1" gradientUnits="userSpaceOnUse" gradientTransform="translate(344.077 268.573) rotate(180) scale(306.673 307.081)">
<stop offset="0.4" stop-color="#CFA935"/>
<stop offset="0.6" stop-color="#CFA935"/>
<stop offset="0.7" stop-color="#9C8028"/>
<stop offset="0.8" stop-color="#392F0E"/>
<stop offset="0.9" stop-color="#1A1506"/>
<stop offset="1"/>
</radialGradient>
<radialGradient id="paint16_radial_312_763" cx="0" cy="0" r="1" gradientUnits="userSpaceOnUse" gradientTransform="translate(344.077 268.573) rotate(180) scale(306.674 307.081)">
<stop offset="0.4" stop-color="#CFA935"/>
<stop offset="0.6" stop-color="#CFA935"/>
<stop offset="0.7" stop-color="#9C8028"/>
<stop offset="0.8" stop-color="#392F0E"/>
<stop offset="0.9" stop-color="#1A1506"/>
<stop offset="1"/>
</radialGradient>
<radialGradient id="paint17_radial_312_763" cx="0" cy="0" r="1" gradientUnits="userSpaceOnUse" gradientTransform="translate(344.077 268.573) rotate(180) scale(306.673 307.081)">
<stop offset="0.4" stop-color="#CFA935"/>
<stop offset="0.6" stop-color="#CFA935"/>
<stop offset="0.7" stop-color="#9C8028"/>
<stop offset="0.8" stop-color="#392F0E"/>
<stop offset="0.9" stop-color="#1A1506"/>
<stop offset="1"/>
</radialGradient>
<radialGradient id="paint18_radial_312_763" cx="0" cy="0" r="1" gradientUnits="userSpaceOnUse" gradientTransform="translate(344.077 268.573) rotate(180) scale(306.673 307.081)">
<stop offset="0.4" stop-color="#CFA935"/>
<stop offset="0.6" stop-color="#CFA935"/>
<stop offset="0.7" stop-color="#9C8028"/>
<stop offset="0.8" stop-color="#392F0E"/>
<stop offset="0.9" stop-color="#1A1506"/>
<stop offset="1"/>
</radialGradient>
<radialGradient id="paint19_radial_312_763" cx="0" cy="0" r="1" gradientUnits="userSpaceOnUse" gradientTransform="translate(344.077 268.573) rotate(180) scale(306.673 307.081)">
<stop offset="0.4" stop-color="#CFA935"/>
<stop offset="0.6" stop-color="#CFA935"/>
<stop offset="0.7" stop-color="#9C8028"/>
<stop offset="0.8" stop-color="#392F0E"/>
<stop offset="0.9" stop-color="#1A1506"/>
<stop offset="1"/>
</radialGradient>
<radialGradient id="paint20_radial_312_763" cx="0" cy="0" r="1" gradientUnits="userSpaceOnUse" gradientTransform="translate(344.078 268.573) rotate(180) scale(306.674 307.081)">
<stop offset="0.4" stop-color="#CFA935"/>
<stop offset="0.6" stop-color="#CFA935"/>
<stop offset="0.7" stop-color="#9C8028"/>
<stop offset="0.8" stop-color="#392F0E"/>
<stop offset="0.9" stop-color="#1A1506"/>
<stop offset="1"/>
</radialGradient>
<radialGradient id="paint21_radial_312_763" cx="0" cy="0" r="1" gradientUnits="userSpaceOnUse" gradientTransform="translate(344.077 268.573) rotate(180) scale(306.673 307.081)">
<stop offset="0.4" stop-color="#CFA935"/>
<stop offset="0.6" stop-color="#CFA935"/>
<stop offset="0.7" stop-color="#9C8028"/>
<stop offset="0.8" stop-color="#392F0E"/>
<stop offset="0.9" stop-color="#1A1506"/>
<stop offset="1"/>
</radialGradient>
<radialGradient id="paint22_radial_312_763" cx="0" cy="0" r="1" gradientUnits="userSpaceOnUse" gradientTransform="translate(344.076 268.573) rotate(180) scale(306.672 307.081)">
<stop offset="0.4" stop-color="#CFA935"/>
<stop offset="0.6" stop-color="#CFA935"/>
<stop offset="0.7" stop-color="#9C8028"/>
<stop offset="0.8" stop-color="#392F0E"/>
<stop offset="0.9" stop-color="#1A1506"/>
<stop offset="1"/>
</radialGradient>
<radialGradient id="paint23_radial_312_763" cx="0" cy="0" r="1" gradientUnits="userSpaceOnUse" gradientTransform="translate(344.077 268.573) rotate(180) scale(306.673 307.081)">
<stop offset="0.4" stop-color="#CFA935"/>
<stop offset="0.6" stop-color="#CFA935"/>
<stop offset="0.7" stop-color="#9C8028"/>
<stop offset="0.8" stop-color="#392F0E"/>
<stop offset="0.9" stop-color="#1A1506"/>
<stop offset="1"/>
</radialGradient>
<radialGradient id="paint24_radial_312_763" cx="0" cy="0" r="1" gradientUnits="userSpaceOnUse" gradientTransform="translate(344.077 268.573) rotate(180) scale(306.674 307.081)">
<stop offset="0.4" stop-color="#CFA935"/>
<stop offset="0.6" stop-color="#CFA935"/>
<stop offset="0.7" stop-color="#9C8028"/>
<stop offset="0.8" stop-color="#392F0E"/>
<stop offset="0.9" stop-color="#1A1506"/>
<stop offset="1"/>
</radialGradient>
<radialGradient id="paint25_radial_312_763" cx="0" cy="0" r="1" gradientUnits="userSpaceOnUse" gradientTransform="translate(344.077 268.573) rotate(180) scale(306.673 307.081)">
<stop offset="0.4" stop-color="#CFA935"/>
<stop offset="0.6" stop-color="#CFA935"/>
<stop offset="0.7" stop-color="#9C8028"/>
<stop offset="0.8" stop-color="#392F0E"/>
<stop offset="0.9" stop-color="#1A1506"/>
<stop offset="1"/>
</radialGradient>
<radialGradient id="paint26_radial_312_763" cx="0" cy="0" r="1" gradientUnits="userSpaceOnUse" gradientTransform="translate(344.077 268.573) rotate(180) scale(306.673 307.081)">
<stop offset="0.4" stop-color="#CFA935"/>
<stop offset="0.6" stop-color="#CFA935"/>
<stop offset="0.7" stop-color="#9C8028"/>
<stop offset="0.8" stop-color="#392F0E"/>
<stop offset="0.9" stop-color="#1A1506"/>
<stop offset="1"/>
</radialGradient>
<radialGradient id="paint27_radial_312_763" cx="0" cy="0" r="1" gradientUnits="userSpaceOnUse" gradientTransform="translate(344.077 268.573) rotate(180) scale(306.674 307.081)">
<stop offset="0.4" stop-color="#CFA935"/>
<stop offset="0.6" stop-color="#CFA935"/>
<stop offset="0.7" stop-color="#9C8028"/>
<stop offset="0.8" stop-color="#392F0E"/>
<stop offset="0.9" stop-color="#1A1506"/>
<stop offset="1"/>
</radialGradient>
<clipPath id="clip0_312_763">
<rect width="534" height="519" fill="white" transform="matrix(-1 0 0 1 534 0)"/>
</clipPath>
</defs>
</svg>
